<?xml version="1.0" encoding="UTF-8" standalone="no"?>
<!-- Created with Inkscape (http://www.inkscape.org/) -->

<svg
   xmlns:dc="http://purl.org/dc/elements/1.1/"
   xmlns:cc="http://creativecommons.org/ns#"
   xmlns:rdf="http://www.w3.org/1999/02/22-rdf-syntax-ns#"
   xmlns:svg="http://www.w3.org/2000/svg"
   xmlns="http://www.w3.org/2000/svg"
   xmlns:sodipodi="http://sodipodi.sourceforge.net/DTD/sodipodi-0.dtd"
   xmlns:inkscape="http://www.inkscape.org/namespaces/inkscape"
   id="svg4192"
   version="1.1"
   inkscape:version="0.91 r13725"
   xml:space="preserve"
   width="2124.6152"
   height="1366.9318"
   viewBox="0 0 2124.6152 1366.9318"
   sodipodi:docname="AECSP-logo_off_moderne.svg"><metadata
     id="metadata4198"><rdf:RDF><cc:Work
         rdf:about=""><dc:format>image/svg+xml</dc:format><dc:type
           rdf:resource="http://purl.org/dc/dcmitype/StillImage" /><dc:title></dc:title></cc:Work></rdf:RDF></metadata><defs
     id="defs4196" /><sodipodi:namedview
     pagecolor="#ffffff"
     bordercolor="#666666"
     borderopacity="1"
     objecttolerance="10"
     gridtolerance="10"
     guidetolerance="10"
     inkscape:pageopacity="0"
     inkscape:pageshadow="2"
     inkscape:window-width="1280"
     inkscape:window-height="961"
     id="namedview4194"
     showgrid="false"
     inkscape:zoom="0.3274935"
     inkscape:cx="1054.6146"
     inkscape:cy="1095.4512"
     inkscape:window-x="-8"
     inkscape:window-y="-8"
     inkscape:window-maximized="1"
     inkscape:current-layer="g4200"
     fit-margin-top="0"
     fit-margin-left="0"
     fit-margin-right="0"
     fit-margin-bottom="0" /><g
     id="g4200"
     inkscape:groupmode="layer"
     inkscape:label="ink_ext_XXXXXX"
     transform="matrix(1.25,0,0,-1.25,-116.54768,1420.1569)"><path
       d="m 487.37208,409.71988 c 37.4048,-28.7288 16,-108.0476 18,-163.9996 20.06,2.8995 49.4869,3.6418 65.9998,-2.9999 -4.4393,-6.4025 -12.8822,-6.8344 -19,-9 -19.6895,-6.9669 -39.2416,-15.9361 -53.9998,-29.9999 -41.2833,-39.3446 -61.6513,-101.8295 -105.9997,-139.999399 -13.9827,-12.0404 -32.7017,-25.1203 -56.9998,-20 5.8049,7.65 15.9227,8.54 23.9999,12.9999 20.7951,11.4801 37.7827,39.1797 52.9999,61.999699 26.5373,39.7938 45.2735,89.0035 47.9998,150.9996 1.308,29.7398 -2.5975,62.8784 1,97.9997 2.0847,20.3582 13.6417,34.7299 25.9999,41.9999"
       style="fill:#161314;fill-opacity:1;fill-rule:evenodd;stroke:none"
       id="path4290-5"
       inkscape:connector-curvature="0" /><path
       style="fill:#ff9e1b;fill-opacity:1;fill-rule:evenodd;stroke:none;stroke-opacity:1"
       d="m 424.77538,442.73118 c -15.788,0.9088 -32.0079,3.7802 -67.3542,11.9234 -42.6557,9.8272 -60.1776,15.815 -83.1831,28.4259 -50.7746,27.8332 -83.1029,58.6782 -96.4687,92.0424 -9.7323,24.2941 -10.0807,50.7456 -0.9625,73.0698 7.7365,18.9413 22.9767,35.3567 42.1642,45.4155 7.5713,3.9692 15.2311,6.4919 24.5311,8.0792 10.6102,1.8109 27.815,1.3935 38.8392,-0.9424 20.2991,-4.301 36.7721,-12.4198 47.7757,-23.5464 9.9882,-10.1 15.2674,-24.1426 15.2674,-40.6114 0,-16.2163 -5.0766,-31.2916 -14.5063,-43.0773 -4.9876,-6.2337 -9.4357,-9.752 -16.9447,-13.4025 -8.2222,-3.9973 -12.3429,-4.9698 -22.5958,-5.3327 -10.1029,-0.3576 -17.0502,0.8024 -25.5433,4.265 -8.5324,3.4786 -17.6148,10.3925 -21.8303,16.6181 -7.5659,11.1733 -9.1447,25.7361 -4.3107,39.7605 2.5317,7.345 5.125,11.3768 11.3781,17.6892 8.6301,8.7119 16.1277,11.7616 27.2061,11.0662 13.3145,-0.8358 27.1141,-9.2691 31.9226,-19.5087 5.95,-12.6706 1.4108,-27.3086 -10.0947,-32.5536 -5.0473,-2.3008 -12.1877,-2.4887 -16.1274,-0.4243 -7.1578,3.7506 -9.9009,9.0881 -7.2777,14.1607 1.2609,2.4383 6.4963,6.9381 7.2248,6.2096 0.3561,-0.3561 0.3833,-2.1975 0.07,-4.7499 -0.629,-5.1255 -0.5104,-6.2262 0.8315,-7.7199 0.9121,-1.0153 1.6381,-1.1304 5.3708,-0.8515 13.324,0.9957 17.6764,10.7786 9.4284,21.1925 -4.4498,5.6184 -12.844,9.2546 -21.427,9.2818 -15.0525,0.048 -23.4327,-8.2176 -23.3379,-23.0176 0.098,-15.2229 9.9033,-29.9706 22.9008,-34.4425 9.3544,-3.2183 19.2984,-1.7764 29.6643,4.3016 1.9217,1.1268 5.9928,4.522 9.0469,7.545 9.019,8.9268 12.47,16.6226 12.4546,27.7736 -0.033,23.9065 -13.262,42.0281 -36.301,49.7261 -9.6995,3.2409 -23.1842,4.6155 -33.9214,3.458 -45.409,-4.8955 -76.4794,-40.7006 -69.9927,-80.6586 4.9688,-30.6081 30.1535,-57.1957 85.8906,-90.6755 44.1644,-26.5284 95.9534,-42.5507 137.3876,-42.5044 18.1419,0.02 29.565,2.9154 38.8432,9.8449 7.0738,5.2831 9.2252,11.2154 10.0699,27.7668 0.3257,6.3818 0.9983,18.6111 1.4948,27.1761 2.1387,36.8973 2.5418,76.6565 0.8855,87.33 -2.6489,17.0702 -8.4654,27.1149 -18.584,32.0934 -4.393,2.1615 -11.0939,3.9081 -15.0667,3.9273 -2.1529,0.01 -2.2298,0.093 -3.2566,3.5221 -1.6497,5.509 -1.8839,18.8589 -0.6539,37.277 1.274,19.077 1.0551,34.3683 -0.5811,40.5847 -1.39,5.2811 -4.2096,9.957 -7.5237,12.477 -3.336,2.5367 -10.3283,4.7436 -19.1497,6.0441 -8.6083,1.269 -24.2913,0.9188 -30.448,-0.6799 -13.1925,-3.4256 -19.5547,-10.7086 -17.7354,-20.3019 0.3358,-1.7703 0.9006,-3.7609 1.2553,-4.4237 0.8007,-1.4961 1.0898,-1.5145 -5.6662,0.3603 -7.0027,1.9433 -12.3099,4.7457 -14.7382,7.7823 -1.584,1.9808 -1.8943,2.9524 -2.0988,6.5701 -0.2052,3.633 -0.01,4.7158 1.355,7.5052 1.5651,3.1991 5.9183,7.9683 10.1468,11.1167 4.8315,3.5973 14.8106,8.0235 22.5959,10.0223 15.5658,3.9965 46.9637,2.8867 62.1705,-2.1975 10.1732,-3.4013 14.0834,-7.4014 16.6892,-17.073 1.2488,-4.6348 1.3054,-6.197 1.3809,-38.116 0.082,-34.5783 0.5493,-42.2178 2.6326,-43.0172 0.4965,-0.1905 5.6185,-0.6228 11.3822,-0.9607 10.5279,-0.6171 16.9257,-1.4033 19.5557,-2.4032 1.6534,-0.6286 3.3124,-4.1726 5.5212,-11.7948 3.8523,-13.2936 4.7184,-30.7298 3.1772,-63.964 -0.5529,-11.9239 -1.27,-38.9931 -1.5935,-60.1538 -0.6144,-40.1874 -1.1138,-49.7863 -3.1079,-59.7278 -5.5634,-27.737 -20.0327,-36.6493 -56.1275,-34.5717 z"
       id="path5093-5"
       inkscape:connector-curvature="0" /><path
       style="fill:#ff9e1b;fill-opacity:1;fill-rule:evenodd;stroke:none;stroke-opacity:1"
       d="m 415.38008,569.36668 c -5.8154,2.1074 -9.541,8.5146 -9.5304,16.3901 0.012,8.9057 4.2616,13.9346 12.1406,14.3673 3.6999,0.2033 4.2481,0.068 6.5658,-1.6198 6.7059,-4.8834 8.3889,-17.9775 3.2267,-25.1038 -2.9271,-4.0408 -7.9106,-5.6616 -12.4027,-4.0338 z"
       id="path5095-5"
       inkscape:connector-curvature="0" /><path
       style="fill:#bf0d3e;fill-opacity:1;fill-rule:evenodd;stroke:none;stroke-opacity:1"
       d="m 612.87078,517.77928 c -13.4202,1.0899 -22.9298,4.5498 -35.3639,12.8669 -19.8064,13.2483 -34.7304,35.7177 -40.1379,60.4314 -1.7994,8.2235 -1.6361,28.4371 0.3059,37.8633 5.2365,25.4182 17.6944,46.8516 32.2622,55.5062 15.1691,9.0118 36.4895,10.7752 55.1313,4.5597 10.0629,-3.3551 17.727,-8.0546 24.7939,-15.2032 5.9486,-6.0173 9.9112,-13.1473 12.3036,-22.1386 1.363,-5.1224 1.5779,-7.1773 1.5779,-15.0904 0,-7.9751 -0.2099,-9.9507 -1.6222,-15.2674 -3.9042,-14.6974 -12.6309,-26.5238 -23.6924,-32.1076 -6.2091,-3.1344 -12.1849,-4.4588 -20.0621,-4.4464 -7.6962,0.012 -12.2715,0.9557 -18.6434,3.8449 -10.614,4.8126 -19.7476,14.0128 -23.5928,23.7649 -1.1509,2.9186 -1.3586,4.6197 -1.3535,11.0816 0.01,6.6209 0.2214,8.282 1.6292,12.5193 3.2549,9.7977 9.7852,18.0688 17.0953,21.6529 9.2164,4.5187 22.5086,2.4157 29.6088,-4.6846 5.794,-5.7939 7.4789,-14.4152 4.1479,-21.2234 -2.9519,-6.0335 -8.9652,-9.7515 -13.4029,-8.2869 -2.0483,0.676 -5.2101,3.6002 -6.3968,5.916 -0.8817,1.7208 -0.023,2.0458 5.4075,2.0458 3.8934,0 4.2742,0.123 5.7274,1.8501 5.5394,6.5831 0.325,17.1563 -8.9321,18.1117 -9.2681,0.9566 -17.1356,-6.4161 -19.6837,-18.4457 -2.8525,-13.4663 1.7305,-23.8996 12.7669,-29.0641 10.2282,-4.7864 23.5948,-1.7547 33.7604,7.6571 12.2561,11.3473 14.9179,25.7358 7.4969,40.5245 -6.4103,12.7744 -17.7088,21.3583 -31.1705,23.6814 -6.5148,1.1242 -10.8901,0.8802 -18.8926,-1.0538 -20.7693,-5.0193 -34.6259,-20.716 -38.9066,-44.073 -1.539,-8.3975 -1.3772,-23.1737 0.3506,-32.0211 5.9288,-30.3589 27.2145,-54.9058 53.2748,-61.4373 13.2541,-3.3218 26.2776,-2.4611 40.3933,2.6695 13.2345,4.8102 28.5177,16.9246 42.1437,33.4054 6.0568,7.3258 17.5511,22.7582 22.4214,30.1031 2.1158,3.1909 4.0851,6.0628 4.3762,6.3818 0.2994,0.3283 0.5292,-8.9826 0.5292,-21.4464 l 0,-22.0266 -8.0917,-8.1754 c -22.6431,-22.8772 -45.6533,-35.7129 -70.3846,-39.2624 -7.9627,-1.1428 -19.8934,-1.5744 -27.1746,-0.9832 z"
       id="path5097-1"
       inkscape:connector-curvature="0" /><path
       style="fill:#bf0d3e;fill-opacity:1;fill-rule:evenodd;stroke:none;stroke-opacity:1"
       d="m 717.66671,586.49052 c 0,13.3486 -0.2197,21.119 -0.597,21.119 -0.3283,0 0.8602,2.2672 2.6412,5.0383 13.0501,20.3048 27.0091,50.0246 34.857,74.2134 11.3878,35.0994 15.7146,75.1745 10.4,96.3243 -2.358,9.3838 -7.961,17.1828 -14.4848,20.1621 -11.0411,5.0421 -24.9267,6.148 -84.4205,6.723 -45.1019,0.4359 -52.0313,0.053 -63.2074,-3.4879 -9.8431,-3.1191 -17.125,-8.7701 -20.7255,-16.0836 -1.8222,-3.7015 -3.7024,-11.2697 -3.7024,-14.903 0,-1.9992 -1.2285,-2.6828 -6.8202,-3.795 -4.9693,-0.9885 -21.6206,-0.9353 -34.7074,0.1107 -5.5421,0.4431 -15.0232,0.8038 -21.0691,0.8017 -27,-0.01 -34.154,-5.8578 -36.9885,-30.2387 -0.8821,-7.5874 -0.4184,-21.6893 0.9087,-27.6341 1.8841,-8.4404 6.2385,-15.3614 11.0359,-17.5408 3.0044,-1.3649 8.9495,-1.4843 12.4478,-0.25 1.3858,0.4889 2.5196,0.6955 2.5196,0.4591 0,-0.2363 -0.972,-3.3467 -2.1599,-6.9117 -2.4824,-7.4499 -4.6818,-11.2481 -7.9597,-13.746 -2.0042,-1.5273 -2.8386,-1.7592 -6.3239,-1.7568 -3.3302,0 -4.5357,0.3071 -7.0685,1.787 -6.2045,3.6254 -13.8607,12.8368 -17.7737,21.3839 -3.9183,8.5587 -6.1351,25.9159 -5.542,43.3926 0.8707,25.6545 5.4084,39.3832 14.548,44.0146 7.0247,3.5597 7.152,3.5705 42.6616,3.6316 22.3957,0.039 33.8249,0.2826 36.3365,0.7762 2.0154,0.3961 5.064,1.0097 6.7748,1.3636 l 3.1105,0.6436 0.4075,11.7201 c 0.4062,11.6793 1.25,19.037 2.3401,20.4035 0.8382,1.0508 9.9797,4.2362 15.3265,5.3406 15.2209,3.144 28.6148,3.6546 66.0883,2.5192 16.7942,-0.5089 42.7642,-1.2122 57.7111,-1.5629 32.1467,-0.7544 44.8117,-1.468 54.0358,-3.045 20.0957,-3.4355 30.8773,-12.1934 35.2218,-28.6106 0.8974,-3.3912 1.3276,-7.4452 1.5673,-14.768 0.7273,-22.2231 -2.8835,-45.5793 -13.8288,-89.4503 -12.1232,-48.592 -18.4192,-64.3499 -37.7994,-94.6056 -5.8249,-9.0936 -17.6269,-25.243 -22.9479,-31.401 l -2.8134,-3.256 0,21.1189 z"
       id="path5099-5"
       inkscape:connector-curvature="0" /><path
       style="fill:#bf0d3e;fill-opacity:1;fill-rule:evenodd;stroke:none;stroke-opacity:1"
       d="m 648.10998,753.11888 c -6.6975,1.8914 -10.2638,6.2917 -10.2594,12.6587 0,5.9609 3.9636,9.9969 11.657,11.8823 8.6149,2.1112 16.2171,0.01 18.8881,-5.2291 4.8951,-9.5952 -1.5331,-18.9624 -13.6183,-19.8446 -2.1898,-0.1598 -5.0141,0.066 -6.6674,0.5327 z"
       id="path5101-8"
       inkscape:connector-curvature="0" /><path
       style="fill:#78d64b;fill-opacity:1;fill-rule:evenodd;stroke:#78d64b;stroke-width:0.61069918;stroke-opacity:1"
       d="m 222.08538,745.56388 c -9.4047,0.4378 -25.344,0.8226 -35.4205,0.855 -40.845,0.1316 -59.8022,2.5831 -74.0917,9.5813 -9.8971,4.847 -16.094904,12.409 -18.161504,22.1589 -0.5874,2.7709 -0.8606,8.3437 -0.8678,17.7019 -0.01,12.5813 0.161,14.7955 2.1667,28.0921 11.416404,75.6838 24.600904,114.6461 53.639404,158.5121 18.4896,27.93072 36.7044,47.51812 55.9894,60.20822 25.2176,16.5941 56.5911,22.7865 81.9995,16.1849 25.4269,-6.6065 48.1071,-26.6666 58.9452,-52.1358 10.4411,-24.53622 8.6746,-60.74352 -4.2103,-86.29682 -6.6193,-13.1273 -14.2299,-20.6743 -27.0364,-26.8105 -14.9269,-7.1521 -36.4544,-8.0785 -52.909,-2.2768 -24.3122,8.5722 -37.2948,26.8436 -37.2948,52.4879 0,23.2976 12.8405,42.8225 32.0617,48.7521 21.7141,6.6985 48.6558,-5.4751 55.7739,-25.2015 1.4108,-3.9098 1.5881,-5.3022 1.5725,-12.3459 -0.015,-6.9249 -0.2245,-8.5632 -1.6369,-12.8247 -5.1232,-15.4573 -16.5773,-24.3139 -30.2029,-23.3535 -6.2017,0.4371 -10.9555,2.2853 -14.8236,5.763 -4.3298,3.8929 -6.2313,7.8501 -6.5822,13.6983 -0.3408,5.6804 0.8184,9.6645 3.8387,13.193 5.3055,6.1983 11.9394,5.8423 16.1957,-0.8692 1.0008,-1.578 1.8195,-3.0815 1.8195,-3.3411 0,-0.2596 -2.186,-0.3034 -4.8579,-0.097 -6.0518,0.4667 -7.4107,-0.2556 -8.8964,-4.7285 -2.1713,-6.5372 -0.4112,-11.8435 4.4619,-13.4518 3.1074,-1.0256 10.2235,-0.3867 14.0202,1.2588 13.5543,5.8741 15.8705,29.4363 3.9718,40.4041 -4.3157,3.9782 -8.64,5.6722 -15.1206,5.9235 -9.2895,0.3602 -17.9104,-2.7287 -24.6583,-8.8351 -4.3909,-3.9736 -7.0243,-7.9794 -9.0718,-13.7997 -2.1386,-6.079 -2.2315,-15.3463 -0.2129,-21.2302 2.261,-6.5904 5.8775,-12.0566 11.9192,-18.0156 9.3812,-9.2528 15.2224,-11.936 26.9515,-12.3801 8.3931,-0.3178 13.7923,0.7893 20.6077,4.2256 17.9552,9.0529 29.2909,25.6609 32.544,47.6801 3.3871,22.9265 -5.282,49.39752 -22.1534,67.64532 -13.376,14.4672 -27.8402,20.9644 -46.6046,20.9347 -14.571,-0.023 -26.31,-3.7621 -40.3061,-12.8377 -10.0112,-6.4916 -17.5553,-13.6796 -30.2891,-28.8593 -22.4018,-26.70472 -46.5698,-66.12112 -56.9127,-92.82102 -11.7555,-30.3467 -19.1411,-79.4208 -15.774,-104.8119 1.6207,-12.2218 4.3298,-19.3507 9.4225,-24.7952 5.8037,-6.2046 10.0224,-7.2533 35.1015,-8.726 8.4686,-0.4973 20.4816,-1.2317 26.6954,-1.6319 15.9711,-1.0287 71.733,-1.0318 80.0016,0 17.2986,2.1494 24.7962,5.749 29.1637,14.0015 1.0254,1.9375 3.1614,7.645 4.7466,12.6832 1.5853,5.0383 3.1779,9.3479 3.5392,9.577 2.7598,1.7498 22.0123,2.3487 36.0213,1.1206 30.5706,-2.6799 42.5242,-1.7846 50.8991,3.8125 7.188,4.8038 10.8643,15.9528 11.6272,35.2619 0.7371,18.6567 -2.7216,30.215 -10.2018,34.0923 -2.5582,1.326 -3.1938,1.3938 -9.6098,1.0246 -8.0216,-0.4615 -7.7762,-0.7416 -5.4197,6.1867 1.9087,5.6119 3.0415,7.7233 5.7596,10.7357 5.5355,6.1345 12.9678,5.4524 21.0397,-1.9308 6.7448,-6.1693 13.6026,-18.5081 16.4333,-29.5675 1.8094,-7.0693 2.2703,-28.8412 0.8679,-40.9994 -1.8526,-16.0602 -5.7958,-27.1096 -11.1253,-31.1747 -5.6895,-4.3395 -16.2215,-6.1237 -32.5937,-5.5215 -5.878,0.2161 -18.1073,0.4127 -27.1761,0.4368 -17.8017,0.047 -23.424,-0.5958 -29.0082,-3.3179 -3.4027,-1.6586 -3.5799,-2.4309 -3.629,-15.8136 -0.019,-5.2737 -0.3374,-10.9976 -0.7068,-12.7198 -0.6184,-2.8834 -0.8789,-3.2202 -3.2899,-4.2537 -5.5711,-2.388 -13.6821,-4.2976 -25.0468,-5.8966 -9.1667,-1.2898 -51.0022,-1.5822 -73.8946,-0.5165 l 0,-10e-5 z"
       id="path5163-3"
       inkscape:connector-curvature="0" /><path
       style="fill:#78d64b;fill-opacity:1;fill-rule:evenodd;stroke:#78d64b;stroke-width:0.61069918;stroke-opacity:1"
       d="m 229.68218,800.40278 c -3.863,1.0955 -6.5332,2.7748 -8.7259,5.4877 -1.5425,1.9084 -1.9122,2.9863 -2.1146,6.1641 -0.4038,6.3425 2.325,9.7159 9.7901,12.1029 8.0238,2.5657 16.2075,1.3783 19.9605,-2.8962 3.1836,-3.6259 3.4236,-11.0323 0.5005,-15.4493 -3.1596,-4.7745 -12.4851,-7.3732 -19.4106,-5.4092 z"
       id="path5165-9"
       inkscape:connector-curvature="0" /><text
       xml:space="preserve"
       style="font-style:normal;font-variant:normal;font-weight:normal;font-stretch:condensed;font-size:110px;line-height:125%;font-family:'Agency FB';-inkscape-font-specification:'Agency FB Condensed';letter-spacing:0px;word-spacing:0px;fill:#000000;fill-opacity:1;stroke:none;stroke-width:1px;stroke-linecap:butt;stroke-linejoin:miter;stroke-opacity:1"
       x="835.43646"
       y="-410.38986"
       id="text5391"
       sodipodi:linespacing="125%"
       transform="scale(1,-1)"><tspan
         sodipodi:role="line"
         id="tspan5393"
         x="835.43646"
         y="-410.38986">Association des étudiants</tspan><tspan
         sodipodi:role="line"
         x="835.43646"
         y="-272.88986"
         id="tspan5395">des cycles supérieurs</tspan><tspan
         sodipodi:role="line"
         x="835.43646"
         y="-135.38986"
         id="tspan5397">de Polytechnique</tspan></text>
<text
       xml:space="preserve"
       style="font-style:normal;font-variant:normal;font-weight:normal;font-stretch:normal;font-size:400px;line-height:125%;font-family:'Ziggy Zoe';-inkscape-font-specification:'Ziggy Zoe';letter-spacing:0px;word-spacing:0px;fill:#000000;fill-opacity:1;stroke:none;stroke-width:1px;stroke-linecap:butt;stroke-linejoin:miter;stroke-opacity:1"
       x="1451.1229"
       y="-2353.1372"
       id="text4186"
       sodipodi:linespacing="125%"
       transform="scale(1,-1)"><tspan
         sodipodi:role="line"
         id="tspan4188"
         x="1451.1229"
         y="-2353.1372" /></text>
<text
       xml:space="preserve"
       style="font-style:normal;font-variant:normal;font-weight:normal;font-stretch:normal;font-size:358.90869141px;line-height:125%;font-family:'Maiandra GD';-inkscape-font-specification:'Maiandra GD';letter-spacing:0px;word-spacing:0px;fill:#000000;fill-opacity:1;stroke:none;stroke-width:1px;stroke-linecap:butt;stroke-linejoin:miter;stroke-opacity:1"
       x="832.07288"
       y="-668.02026"
       id="text4190"
       sodipodi:linespacing="125%"
       transform="scale(0.99237488,-1.0076837)"><tspan
         sodipodi:role="line"
         id="tspan4192"
         x="832.07288"
         y="-668.02026"
         style="font-size:350px">AÉCSP</tspan></text>
<path
       style="fill:#41b6e6;fill-opacity:1;fill-rule:evenodd;stroke:none;stroke-opacity:1"
       d="m 717.69119,953.48835 c -1.0899,-13.4202 -4.5498,-22.9298 -12.8669,-35.3639 -13.2483,-19.8064 -35.7177,-34.7304 -60.4314,-40.1379 -8.2235,-1.7994 -28.4371,-1.6361 -37.8633,0.3059 -25.4182,5.2365 -46.8516,17.6944 -55.50619,32.2622 -9.0118,15.1691 -10.7752,36.4895 -4.5597,55.1313 3.3551,10.0629 8.05459,17.727 15.20319,24.7939 6.0173,5.9486 13.1473,9.91125 22.1386,12.30365 5.1224,1.363 7.1773,1.5779 15.0904,1.5779 7.9751,0 9.9507,-0.2099 15.2674,-1.6223 14.6974,-3.90415 26.5238,-12.63085 32.1076,-23.69235 3.1344,-6.2091 4.4588,-12.1849 4.4464,-20.0621 -0.012,-7.6962 -0.9557,-12.2715 -3.8449,-18.6434 -4.8126,-10.614 -14.0128,-19.7476 -23.7649,-23.5928 -2.9186,-1.1509 -4.6197,-1.3586 -11.0816,-1.3535 -6.6209,0.01 -8.282,0.2214 -12.5193,1.6292 -9.7977,3.2549 -18.0688,9.7852 -21.6529,17.0953 -4.5187,9.2164 -2.4157,22.5086 4.6846,29.6088 5.7939,5.794 14.4152,7.4789 21.2234,4.1479 6.0335,-2.9519 9.7515,-8.9652 8.2869,-13.4029 -0.676,-2.0483 -3.6002,-5.2101 -5.916,-6.3968 -1.7208,-0.8817 -2.0458,-0.023 -2.0458,5.4075 0,3.8934 -0.123,4.2742 -1.8501,5.7274 -6.5831,5.5394 -17.1563,0.325 -18.1117,-8.9321 -0.9566,-9.2681 6.4161,-17.1356 18.4457,-19.6837 13.4663,-2.8525 23.8996,1.7305 29.0641,12.7669 4.7864,10.2282 1.7547,23.5948 -7.6571,33.7604 -11.3473,12.2561 -25.7358,14.9179 -40.5245,7.4969 -12.7744,-6.4103 -21.3583,-17.7088 -23.6814,-31.1705 -1.1242,-6.5148 -0.8802,-10.8901 1.0538,-18.8926 5.0193,-20.7693 20.716,-34.6259 44.073,-38.9066 8.3975,-1.539 23.1737,-1.3772 32.0211,0.3506 30.3589,5.9288 54.9058,27.2145 61.4373,53.2748 3.3218,13.2541 2.4611,26.2776 -2.6695,40.3933 -4.8102,13.23455 -16.9246,28.51775 -33.4054,42.14375 -7.3258,6.0568 -22.7582,17.5511 -30.1031,22.4214 -3.1909,2.1158 -6.0628,4.085 -6.3818,4.3762 -0.3283,0.2994 8.9826,0.5292 21.4464,0.5292 l 22.0266,0 8.1754,-8.0917 c 22.8772,-22.6431 35.7129,-45.6533 39.2624,-70.38465 1.1428,-7.9627 1.5744,-19.8934 0.9832,-27.1746 z"
       id="path5097-1-9"
       inkscape:connector-curvature="0" /><path
       style="fill:#41b6e6;fill-opacity:1;fill-rule:evenodd;stroke:none;stroke-opacity:1"
       d="m 648.57975,1058.6463 c -13.3486,0 -21.119,-0.2197 -21.119,-0.597 0,-0.3283 -2.2672,0.8602 -5.0383,2.6412 -20.3048,13.0501 -50.0246,27.0091 -74.21339,34.857 -35.0994,11.3878 -75.1745,15.7146 -96.3243,10.4 -9.3838,-2.358 -17.1828,-7.961 -20.1621,-14.4848 -5.0421,-11.0411 -6.148,-24.9267 -6.723,-84.4205 -0.4359,-45.10189 -0.053,-52.03129 3.4879,-63.20739 3.1191,-9.8431 8.7701,-17.125 16.0836,-20.7255 3.7015,-1.8222 11.2697,-3.7024 14.903,-3.7024 1.9992,0 2.6828,-1.2285 3.795,-6.8202 0.9885,-4.9693 0.9353,-21.6206 -0.1107,-34.7074 -0.4431,-5.5421 -0.8038,-15.0232 -0.8017,-21.0691 0.01,-27 5.8578,-34.154 30.2387,-36.9885 7.5874,-0.8821 21.6893,-0.4184 27.6341,0.9087 8.4404,1.8841 15.3614,6.2385 17.5408,11.0359 1.3649,3.0044 1.4843,8.9495 0.25,12.4478 -0.4889,1.3858 -0.6955,2.5196 -0.4591,2.5196 0.2363,0 3.3467,-0.972 6.9117,-2.1599 7.4499,-2.4824 11.24809,-4.6818 13.74599,-7.9597 1.5273,-2.0042 1.7592,-2.8386 1.7568,-6.3239 0,-3.3302 -0.3071,-4.5357 -1.787,-7.0685 -3.6254,-6.2045 -12.83679,-13.8607 -21.38389,-17.7737 -8.5587,-3.9183 -25.9159,-6.1351 -43.3926,-5.542 -25.6545,0.8707 -39.3832,5.4084 -44.0146,14.548 -3.5597,7.0247 -3.5705,7.152 -3.6316,42.6616 -0.039,22.3957 -0.2826,33.8249 -0.7762,36.3365 -0.3961,2.0154 -1.0097,5.064 -1.3636,6.7748 l -0.6436,3.1105 -11.7201,0.4075 c -11.6793,0.4062 -19.037,1.25 -20.4035,2.3401 -1.0508,0.8382 -4.2362,9.9797 -5.3406,15.3265 -3.144,15.2209 -3.6546,28.6148 -2.5192,66.0883 0.5089,16.79419 1.2122,42.76419 1.5629,57.71109 0.7544,32.1467 1.468,44.8117 3.045,54.0358 3.4355,20.0957 12.1934,30.8773 28.6106,35.2218 3.3912,0.8974 7.4452,1.3276 14.768,1.5673 22.2231,0.7273 45.5793,-2.8835 89.4503,-13.8288 48.59199,-12.1232 64.34989,-18.4192 94.60559,-37.7994 9.0936,-5.8249 25.243,-17.6269 31.401,-22.9479 l 3.256,-2.8134 -21.1189,0 z"
       id="path5099-5-1"
       inkscape:connector-curvature="0" /><path
       style="fill:#41b6e6;fill-opacity:1;fill-rule:evenodd;stroke:none;stroke-opacity:1"
       d="m 482.3516,988.72755 c -1.8914,-6.6975 -6.2917,-10.2638 -12.6587,-10.2594 -5.9609,0 -9.9969,3.9636 -11.8823,11.657 -2.1112,8.6149 -0.01,16.21715 5.2291,18.88815 9.5952,4.8951 18.9624,-1.5331 19.8446,-13.61835 0.1598,-2.1898 -0.066,-5.0141 -0.5327,-6.6674 z"
       id="path5101-8-0"
       inkscape:connector-curvature="0" /></g></svg>