<?xml version="1.0" encoding="utf-8"?>
<!-- Generator: Adobe Illustrator 25.4.0, SVG Export Plug-In . SVG Version: 6.00 Build 0)  -->
<svg version="1.1" id="Layer_1" xmlns="http://www.w3.org/2000/svg" xmlns:xlink="http://www.w3.org/1999/xlink" x="0px" y="0px"
	 viewBox="0 0 90 90" style="enable-background:new 0 0 90 90;" xml:space="preserve">
<style type="text/css">
	.st0{fill:#005F61;}
	.st1{fill:#FFFFFF;}
</style>
<g>
	<path class="st0" d="M45,0C20.1,0,0,20.1,0,45s20.1,45,45,45s45-20.1,45-45S69.9,0,45,0z"/>
</g>
<path class="st1" d="M31.1,46.9H29c-0.1,0-0.2,0.1-0.2,0.2v6c0,1.2-0.2,2.2-0.6,3s-0.9,1.5-1.5,2c-0.6,0.6-1.3,1-2.1,1.3
	c-0.8,0.3-1.6,0.4-2.4,0.4s-1.6-0.1-2.4-0.4c-0.8-0.3-1.5-0.7-2.1-1.3c-0.6-0.5-1.1-1.2-1.5-2c-0.4-0.9-0.6-1.8-0.6-3V36.6
	c0-1.1,0.2-2.1,0.6-2.9c0.4-0.8,0.9-1.5,1.5-2.1c0.6-0.5,1.3-0.9,2.1-1.2c0.8-0.3,1.6-0.4,2.4-0.4s1.6,0.2,2.4,0.5s1.5,0.7,2.1,1.2
	c0.6,0.6,1.1,1.3,1.5,2.1c0.4,0.9,0.6,1.4,0.6,2.5c-0.1,1-0.9,1.9-2,1.9c-0.9,0-1.7-0.6-1.9-1.5v-0.2c0-0.1,0-0.1,0-0.1
	c-0.1-0.8-0.3-1.4-0.8-1.8c-0.6-0.5-1.2-0.7-1.9-0.7c-0.8,0-1.4,0.3-1.9,0.7c-0.5,0.5-0.8,1.2-0.8,2.1v16.4c0,1,0.3,1.7,0.8,2.1
	c0.6,0.5,1.2,0.7,1.9,0.7c0.8,0,1.4-0.3,1.9-0.7c0.5-0.5,0.8-1.2,0.8-2.1v-6c0-0.1-0.1-0.2-0.2-0.2h-0.5c-1.2,0-2.1-0.9-2-2
	c0-1.1,0.9-1.9,2-1.9h6.9c1.1,0,2,1,2,2C33.1,46.1,32.2,46.9,31.1,46.9z"/>
<path class="st1" d="M38.2,39.9c0,1.1-0.9,2-2,2s-2-0.9-2-2V32c0-1.1,0.9-2,2-2s1.9,0.9,2,2V39.9z"/>
<path class="st1" d="M57.8,57l-4.2-10.9V46c0.3-0.2,0.7-0.4,1-0.7c0.6-0.5,1.1-1.2,1.5-2s0.6-1.8,0.6-3v-3.6c0-1.1-0.2-2.1-0.6-2.9
	c-0.4-0.8-0.9-1.5-1.5-2.1c-0.6-0.5-1.3-0.9-2.1-1.2C51.8,30.2,51,30,50.2,30s-1.6,0.1-2.4,0.4c-0.8,0.3-1.5,0.7-2.1,1.2
	c-0.6,0.6-1.1,1.3-1.5,2.1s-0.6,1.8-0.6,2.9v6.2c0,0.1-0.1,0.1-0.1,0.1h-2.2c-1.1,0-2,0.8-2,1.9c-0.1,1.1,0.8,2,2,2h2.2
	c0.1,0,0.2,0.1,0.2,0.2v10.7c0,1.1,0.8,2,1.9,2c1.1,0.1,2-0.8,2-2V47.1c0-0.1,0.1-0.2,0.2-0.2h1.9c0.1,0,0.2,0,0.2,0.1l4.2,11.5
	c0.4,1,1.6,1.5,2.6,1.1C57.7,59.2,58.2,58,57.8,57z M52.8,40.3c0,0.9-0.3,1.6-0.8,2.1c-0.5,0.4-1.1,0.7-1.9,0.7h-2.5
	c-0.1,0-0.2-0.1-0.2-0.2v-6.2c0-0.9,0.3-1.6,0.8-2.1c0.5-0.4,1.1-0.7,1.9-0.7c0.7,0,1.3,0.2,1.9,0.7c0.5,0.4,0.8,1.1,0.8,2.1V40.3z"
	/>
<path class="st1" d="M73.8,33.8c-0.4-0.8-0.9-1.5-1.5-2.1c-0.6-0.5-1.3-0.9-2.1-1.2s-1.6-0.4-2.4-0.4s-1.6,0.1-2.4,0.4
	s-1.5,0.7-2.1,1.2c-0.6,0.6-1.1,1.3-1.5,2.1s-0.6,1.8-0.6,2.9v16.5c0,1.2,0.2,2.1,0.6,3c0.4,0.8,0.9,1.5,1.5,2
	c0.6,0.6,1.3,1,2.1,1.3c0.8,0.3,1.6,0.4,2.4,0.4s1.6-0.1,2.4-0.4s1.5-0.7,2.1-1.3c0.6-0.5,1.1-1.2,1.5-2s0.6-1.8,0.6-3V36.7
	C74.4,35.6,74.2,34.6,73.8,33.8z M70.5,53.2c0,0.9-0.3,1.6-0.8,2.1c-0.5,0.4-1.1,0.7-1.9,0.7c-0.2,0-0.4,0-0.5,0
	c-0.5-0.1-0.9-0.3-1.3-0.6c-0.5-0.4-0.8-1.1-0.8-2.1V36.7c0-0.9,0.3-1.6,0.8-2.1s1.1-0.7,1.9-0.7c0.3,0,0.6,0.1,0.9,0.2
	c0.3,0.1,0.6,0.3,0.9,0.5c0.5,0.4,0.8,1.1,0.8,2.1V53.2z"/>
<path class="st1" d="M38.2,58c0,1.1-0.9,2-2,2s-2-0.9-2-2v-7.9c0-1.1,0.9-2,2-2s1.9,0.9,2,2V58z"/>
</svg>
