<svg xmlns="http://www.w3.org/2000/svg" viewBox="0 0 650 200">
    <path d="M129.6968,46.45939c-2.0039.4571-3.4453.7735-4.9063.2227a7.26364,7.26364,0,0,1-2.7929-2.7969l-13.5664-18.5937a7.85815,7.85815,0,0,0-2.8321-2.8125c-1.4531-.5704-2.914-.2188-4.9101.2343L56.9155,34.45939v81.56639l43.9258-11.75c2.0235-.43749,3.4688-.78119,4.9219-.23039a7.62264,7.62264,0,0,1,2.7812,2.7851l13.5157,18.5742a7.6785,7.6785,0,0,0,2.7968,2.7813c1.4532.543,2.9024.2265,4.9024-.2461l43.8242-11.7149V34.68209Z" fill="#ed1c24"/>
    <path d="M225.13529,15.9927c1.4492-.7251,4.2514-2.1255,4.2514-7.1026C229.38669,5.3149,227.2129,0,218.709,0h-9.5508l-7.31,3.5659V34.69039h14.6865c7.1035,0,8.9873-1.20749,10.96821-3.14009a10.08084,10.08084,0,0,0,2.99609-7.1514C230.499,20.9687,229.38669,17.58639,225.13529,15.9927Zm-16.3301-10.001h8.3096c3.2866,0,5.3149.8696,5.3149,3.71969,0,2.75391-2.27,3.86571-5.1221,3.86571h-8.5024Zm8.8896,22.708h-8.8896V19.4233h9.227c2.6104,0,5.2188,1.1587,5.2188,4.20309C223.251,27.1533,221.22219,28.6997,217.69479,28.6997Z" fill="none"/>
    <path d="M196.8706,83.12356c1.44919-.7251,4.25139-2.1255,4.25139-7.1026,0-3.5752-2.17379-8.8901-10.67769-8.8901h-9.5508l-7.31,3.5659v31.12449H188.27c7.1035,0,8.9873-1.20749,10.9682-3.14009a10.08084,10.08084,0,0,0,2.99609-7.1514C202.23429,88.09956,201.122,84.71725,196.8706,83.12356Zm-16.3301-10.001h8.3096c3.2866,0,5.3149.8696,5.3149,3.71969,0,2.75391-2.27,3.86571-5.1221,3.86571h-8.5024Zm8.8896,22.708h-8.8896v-9.2764h9.227c2.6104,0,5.2188,1.1587,5.2188,4.20309C194.9863,94.28416,192.9575,95.83056,189.4301,95.83056Z" fill="none"/>
    <path d="M51.5518,83.12356c1.4492-.7251,4.2514-2.1255,4.2514-7.1026,0-3.5752-2.17379-8.8901-10.6777-8.8901H35.5747l-7.31,3.5659v31.12449H42.9512c7.1035,0,8.9873-1.20749,10.96821-3.14009a10.08084,10.08084,0,0,0,2.99609-7.1514C56.9155,88.09956,55.8032,84.71725,51.5518,83.12356Zm-16.3301-10.001h8.3096c3.2866,0,5.3149.8696,5.3149,3.71969,0,2.75391-2.27,3.86571-5.1221,3.86571H35.2217Zm8.8896,22.708H35.2217v-9.2764h9.227c2.6104,0,5.2188,1.1587,5.2188,4.20309C49.6675,94.28416,47.6387,95.83056,44.1113,95.83056Z" fill="none"/>
    <path d="M23.2871,83.12356c1.4492-.7251,4.2514-2.1255,4.2514-7.1026,0-3.5752-2.17379-8.8901-10.6777-8.8901H7.31L0,70.69676v31.12449H14.6865c7.1035,0,8.9873-1.20749,10.96821-3.14009a10.08084,10.08084,0,0,0,2.99609-7.1514C28.6508,88.09956,27.5385,84.71725,23.2871,83.12356ZM6.957,73.12256h8.3096c3.2866,0,5.3149.8696,5.3149,3.71969,0,2.75391-2.27,3.86571-5.1221,3.86571H6.957Zm8.8896,22.708H6.957v-9.2764h9.227c2.6104,0,5.2188,1.1587,5.2188,4.20309C21.4028,94.28416,19.374,95.83056,15.8466,95.83056Z" fill="none"/>
    <path d="M665.80149,146.04023c1.4492-.7251,4.2514-2.1255,4.2514-7.1026,0-3.5752-2.17379-8.8901-10.6777-8.8901h-9.5508l-7.31,3.5659v31.12449h14.6865c7.1035,0,8.9873-1.20749,10.96821-3.14009a10.08084,10.08084,0,0,0,2.99609-7.1514C671.16519,151.01623,670.05289,147.63392,665.80149,146.04023Zm-16.3301-10.001h8.3096c3.2866,0,5.3149.8696,5.3149,3.71969,0,2.75391-2.27,3.86571-5.1221,3.86571h-8.5024Zm8.8896,22.708h-8.8896v-9.2764h9.227c2.6104,0,5.2188,1.1587,5.2188,4.20309C663.91719,157.20083,661.88839,158.74723,658.361,158.74723Z" fill="none"/>
    <path d="M637.53679,146.04023c1.4492-.7251,4.2514-2.1255,4.2514-7.1026,0-3.5752-2.17379-8.8901-10.6777-8.8901h-9.5508l-7.31,3.5659v31.12449h14.6865c7.1035,0,8.9873-1.20749,10.96821-3.14009a10.08084,10.08084,0,0,0,2.99609-7.1514C642.90049,151.01623,641.78819,147.63392,637.53679,146.04023Zm-16.3301-10.001h8.3096c3.2866,0,5.3149.8696,5.3149,3.71969,0,2.75391-2.27,3.86571-5.1221,3.86571h-8.5024Zm8.8896,22.708h-8.8896v-9.2764h9.227c2.6104,0,5.2188,1.1587,5.2188,4.20309C635.65249,157.20083,633.62369,158.74723,630.09629,158.74723Z" fill="none"/>
    <path d="M225.13529,50.68309c1.4492-.7251,4.2514-2.1255,4.2514-7.1026,0-3.5752-2.17379-8.8901-10.6777-8.8901h-9.5508l-7.31,3.5659V69.38078h14.6865c7.1035,0,8.9873-1.20749,10.96821-3.14009a10.08084,10.08084,0,0,0,2.99609-7.1514C230.499,55.65909,229.38669,52.27678,225.13529,50.68309Zm-16.3301-10.001h8.3096c3.2866,0,5.3149.8696,5.3149,3.71969,0,2.75391-2.27,3.86571-5.1221,3.86571h-8.5024Zm8.8896,22.708h-8.8896v-9.2764h9.227c2.6104,0,5.2188,1.1587,5.2188,4.20309C223.251,61.84369,221.22219,63.39009,217.69479,63.39009Z" fill="#fff"/>
    <polygon points="398.126 63.247 398.126 63.245 378.895 63.245 378.895 54.258 392.255 54.258 395.8 48.122 378.895 48.122 378.895 40.827 393.751 40.827 397.294 34.69 379.618 34.69 371.792 38.508 371.792 69.381 394.583 69.381 398.126 63.247" fill="#fff"/>
    <path d="M330.11819,64.40719c2.125-2.7056,3.623-6.6675,3.623-12.3692,0-16.28221-12.0781-18.2627-16.6679-18.2627-.3282,0-.69539.0122-1.0938.0367L304.04,39.63569c-2.1386,2.72509-3.6367,6.6772-3.6367,12.4023,0,16.2823,12.0801,18.2627,16.67,18.2627a18.07535,18.07535,0,0,0,8.89061-2.3183l4.10739,3.9131,3.8164-3.9131Zm-5.2188-4.9278-3.6719-3.43061-3.7187,3.91361,3.4766,3.2846a8.54772,8.54772,0,0,1-3.9121.919c-3.9141,0-9.4219-2.417-9.4219-12.128,0-9.7109,5.5078-12.1259,9.4219-12.1259,3.9121,0,9.4218,2.415,9.4218,12.1259A15.47521,15.47521,0,0,1,324.89939,59.47939Z" fill="#fff"/>
    <path d="M358.88969,38.29539v19.2505c0,4.2041-2.0293,6.6201-7.0059,6.6201-3.3828,0-6.1855-2.127-6.1855-6.9576V34.69329h-.0215l-7.3692,3.5942V57.69178c.0938,3.47911.82231,6.28031,2.7051,8.40631,3.0938,3.43069,7.8281,4.2026,11.0137,4.2026,8.7461,0,14.2539-3.9131,14.2539-13.0444v-22.563h-.0059Z" fill="#fff"/>
    <polygon points="288.87 37.993 288.87 58.848 288.774 58.848 275.003 34.69 267.37 38.414 267.37 69.381 274.134 69.381 274.134 44.643 274.229 44.643 288.388 69.381 295.634 69.381 295.634 34.693 288.87 37.993" fill="#fff"/>
    <path d="M252.12109,34.69039h-.0117l-10.1026,4.9267-10.6123,29.76369h7.6338l2.4151-7.15039h12.8047l2.2221,7.15039h7.8765Zm-8.7441,21.5483,4.4448-13.7221h.0967l4.2998,13.7221Z" fill="#fff"/>
    <polygon points="465.511 110.084 465.511 110.082 446.284 110.082 446.284 101.096 459.644 101.096 463.185 94.959 446.284 94.959 446.284 87.665 461.14 87.665 464.679 81.53 447.005 81.53 439.181 85.345 439.181 116.217 461.972 116.217 465.511 110.084" fill="#fff"/>
    <polygon points="223.347 84.831 223.347 105.685 223.252 105.685 209.481 81.53 201.848 85.251 201.848 116.217 208.613 116.217 208.613 91.482 208.708 91.482 222.864 116.217 230.112 116.217 230.112 81.532 223.347 84.831" fill="#fff"/>
    <path d="M254.28859,81.52969h-.01169l-10.10211,4.9248-10.6123,29.7627h7.6338l2.4155-7.15041H256.416l2.2227,7.15041h7.876Zm-8.74369,21.5469,4.44489-13.7207h.09711l4.29929,13.7207Z" fill="#fff"/>
    <path d="M396.04,81.52969h-.0117l-10.1015,4.9248-10.6114,29.7627h7.6329l2.414-7.15041H398.167l2.2207,7.15041h7.877Zm-8.746,21.5469,4.4472-13.7207h.09771l4.29879,13.7207Z" fill="#fff"/>
    <polygon points="290.44 81.53 265.77 81.53 262.245 87.632 262.245 87.663 272.731 87.663 272.731 116.217 279.977 116.217 279.977 87.663 286.895 87.663 290.44 81.53" fill="#fff"/>
    <polygon points="293.323 85.058 293.323 116.217 300.571 116.217 300.571 81.53 300.558 81.53 293.323 85.058" fill="#fff"/>
    <path d="M322.01269,80.601c-.3164,0-.6719.00979-1.0547.0332l-12.0019,5.8555c-2.125,2.7236-3.6114,6.668-3.6114,12.375,0,16.2822,12.0801,18.2637,16.668,18.2637,4.5918,0,16.6699-1.9815,16.6699-18.2637S326.60449,80.601,322.01269,80.601Zm0,30.3907c-3.9121,0-9.4219-2.417-9.4219-12.127,0-9.71191,5.5098-12.127,9.4219-12.127,3.9141,0,9.4238,2.41509,9.4238,12.127C331.43649,108.57469,325.92679,110.99169,322.01269,110.99169Z" fill="#fff"/>
    <polygon points="364.956 84.831 364.956 105.685 364.86 105.685 351.091 81.53 343.456 85.253 343.456 116.217 350.22 116.217 350.22 91.482 350.317 91.482 364.474 116.217 371.72 116.217 371.72 81.534 364.956 84.831" fill="#fff"/>
    <polygon points="436.325 109.938 419.085 109.938 419.085 81.534 411.837 85.068 411.837 116.217 432.698 116.217 436.325 109.938" fill="#fff"/>
    <path d="M225.13529,132.20989c1.4492-.7251,4.2514-2.1255,4.2514-7.1026,0-3.5752-2.17379-8.8901-10.6777-8.8901h-9.5508l-7.31,3.5659v31.12449h14.6865c7.1035,0,8.9873-1.20749,10.96821-3.14009a10.08084,10.08084,0,0,0,2.99609-7.1514C230.499,137.18589,229.38669,133.80358,225.13529,132.20989Zm-16.3301-10.001h8.3096c3.2866,0,5.3149.8696,5.3149,3.71969,0,2.75391-2.27,3.86571-5.1221,3.86571h-8.5024Zm8.8896,22.708h-8.8896v-9.2764h9.227c2.6104,0,5.2188,1.1587,5.2188,4.20309C223.251,143.37049,221.22219,144.91689,217.69479,144.91689Z" fill="none"/>
    <path d="M225.1319,191.70989c1.4492-.7251,4.2514-2.1255,4.2514-7.1026,0-3.5752-2.17379-8.8901-10.6777-8.8901h-9.5508l-7.31,3.5659v31.12449H216.5313c7.1035,0,8.9873-1.20749,10.96821-3.14009a10.08084,10.08084,0,0,0,2.99609-7.1514C230.4956,196.68589,229.3833,193.30358,225.1319,191.70989Zm-16.3301-10.001h8.3096c3.2866,0,5.3149.8696,5.3149,3.71969,0,2.75391-2.27,3.86571-5.1221,3.86571h-8.5024Zm8.8896,22.708h-8.8896v-9.2764h9.227c2.6104,0,5.2188,1.1587,5.2188,4.20309C223.2476,202.87049,221.2188,204.41689,217.6914,204.41689Z" fill="none"/>
    <rect x="201.8956" y="132.32662" width="412.12499" height="2.6172" fill="#ed1c24"/>
    <path d="M202.07859,150.56691h8.3047l5.023,18.417,5.416-18.417h8.0756v25.313h-5.0551v-21.707l-6.4668,21.707h-4.2022l-6.3354-21.707v21.707h-4.7598Z" fill="#fff"/>
    <path d="M248.52149,150.56691l8.2402,25.313h-5.1221l-1.706-5.4605h-9.3887l-1.7734,5.4605h-4.8574l8.5673-25.313Zm.1318,15.7568-3.2822-10.7846-3.5137,10.7846Z" fill="#fff"/>
    <path d="M262.07419,150.56691h9.0938c2.625-.0342,5.2841-.0342,7.1884,1.7153a6.60908,6.60908,0,0,1,2.0684,4.8672,6.16835,6.16835,0,0,1-4.958,6.1968c3.5781.3506,3.8418,2.5205,4.2676,5.811.3613,2.9776.5586,4.2027.7226,4.9033a4.66648,4.66648,0,0,0,.7227,1.8194h-5.6133c-.2305-1.3999-.9512-7.8067-1.2803-8.7876-.4599-1.4346-1.708-1.4346-2.5595-1.4346h-4.4649v10.2222h-5.1875Zm5.0235,11.064h4.1025a3.97086,3.97086,0,0,0,2.5928-.7002,3.56925,3.56925,0,0,0,1.3125-2.941,3.2329,3.2329,0,0,0-1.2461-2.8359c-.7871-.5952-1.7403-.5952-3.3487-.5952h-3.413Z" fill="#fff"/>
    <path d="M300.28029,158.83061c-.0987-.876-.3936-4.4473-3.8408-4.4473-3.7754,0-5.3506,4.2017-5.3506,9.4185,0,1.5058,0,8.6826,4.956,8.6826,2.1348,0,4.1699-1.4356,4.2676-4.7969h5.3516a8.49166,8.49166,0,0,1-9.0606,8.7886c-8.1738,0-10.832-6.4414-10.832-12.7105,0-8.0161,4.2012-13.3388,10.8652-13.3388,5.1865,0,8.8301,3.3623,8.8301,8.4038Z" fill="#fff"/>
    <path d="M311.40429,150.56691h5.0889V160.686h8.9609v-10.1191h5.1543v25.313h-5.0889v-11.0982h-9.0263v11.0982h-5.0889Z" fill="#fff"/>
    <path d="M337.98829,150.56691H353.877v4.1318h-10.8008v6.0215h10.1103v4.1319h-10.1103v6.8276h11.1621v4.2002h-16.25Zm8.0439-1.7495h-2.6269l2.7236-5.0772h4.4004Z" fill="#fff"/>
    <path d="M364.60639,167.79351c0,1.1904-.0654,4.7959,4.2999,4.7959,2.7587,0,4.498-1.3995,4.498-3.5357,0-2.2402-1.4775-2.626-4.498-3.396-5.6465-1.5063-8.7325-3.2905-8.7325-7.668,0-4.1665,2.792-7.8427,9.3907-7.8427,2.4599,0,5.3828.5952,7.1552,2.9756a7.65134,7.65134,0,0,1,1.3467,4.6919h-4.8926c-.0654-.8755-.3271-3.8511-3.8398-3.8511-2.3652,0-3.9082,1.3652-3.9082,3.4306,0,2.3472,1.7402,2.7662,5.1553,3.6768,4.1025,1.0508,8.1406,2.2412,8.1406,7.1763,0,4.5527-3.544,8.229-10.1104,8.229-9.0927,0-9.1582-6.232-9.1914-8.6826Z" fill="#fff"/>
    <path d="M396.86909,150.60211H412.166v4.0605H401.957v6.2329h9.5196v4.2017H401.957v10.7827h-5.0879Z" fill="#fff"/>
    <path d="M417.48239,150.498h5.0869v25.3819h-5.0869Z" fill="#fff"/>
    <path d="M429.65819,150.56691h7.3535l8.8946,19.9214v-19.9214h4.7265v25.313h-6.9902l-9.1934-21.0059v21.0059h-4.791Z" fill="#fff"/>
    <path d="M470.25979,150.56691l8.2382,25.313h-5.122l-1.7051-5.4605h-9.3896l-1.7715,5.4605h-4.8594l8.5703-25.313Zm.1318,15.7568-3.2822-10.7846-3.5147,10.7846Z" fill="#fff"/>
    <path d="M484.20509,150.56691h7.3535l8.8965,19.9214v-19.9214h4.7256v25.313h-6.9912L488.998,154.874v21.0059h-4.7929Z" fill="#fff"/>
    <path d="M525.65918,158.83061c-.09769-.876-.3936-4.4473-3.83889-4.4473-3.7764,0-5.3515,4.2017-5.3515,9.4185,0,1.5058,0,8.6826,4.957,8.6826,2.13279,0,4.168-1.4356,4.26759-4.7969h5.3496a8.48876,8.48876,0,0,1-9.06059,8.7886c-8.1719,0-10.832-6.4414-10.832-12.7105,0-8.0161,4.2012-13.3388,10.8672-13.3388,5.18549,0,8.82809,3.3623,8.82809,8.4038Z" fill="#fff"/>
    <path d="M536.55468,150.498h5.0879v25.3819h-5.0879Z" fill="#fff"/>
    <path d="M548.79688,150.56691h15.8877v4.1318h-10.7998v6.0215h10.1093v4.1319h-10.1093v6.8276h11.1611v4.2002h-16.249Z" fill="#fff"/>
    <path d="M571.04978,150.56691h9.0928c2.62691-.0342,5.2842-.0342,7.1885,1.7153a6.6105,6.6105,0,0,1,2.0693,4.8672,6.16921,6.16921,0,0,1-4.958,6.1968c3.57912.3506,3.8408,2.5205,4.2666,5.811.3613,2.9776.5586,4.2027.7226,4.9033a4.66648,4.66648,0,0,0,.7227,1.8194H584.541c-.23049-1.3999-.9512-7.8067-1.2803-8.7876-.4589-1.4346-1.707-1.4346-2.5595-1.4346h-4.4649v10.2222h-5.1865Zm5.0225,11.064h4.1025a3.97838,3.97838,0,0,0,2.59471-.7002,3.57488,3.57488,0,0,0,1.31159-2.941,3.23292,3.23292,0,0,0-1.2471-2.8359c-.7871-.5952-1.7393-.5952-3.3477-.5952h-3.414Z" fill="#fff"/>
    <path d="M599.96478,167.79351c0,1.1904-.0644,4.7959,4.3008,4.7959,2.7578,0,4.4961-1.3995,4.4961-3.5357,0-2.2402-1.4765-2.626-4.4961-3.396-5.6465-1.5063-8.7324-3.2905-8.7324-7.668,0-4.1665,2.791-7.8427,9.3897-7.8427,2.4599,0,5.3818.5952,7.1552,2.9756a7.65134,7.65134,0,0,1,1.3467,4.6919h-4.8926c-.0654-.8755-.3271-3.8511-3.8408-3.8511-2.3633,0-3.9062,1.3652-3.9062,3.4306,0,2.3472,1.7402,2.7662,5.1543,3.6768,4.1035,1.0508,8.1406,2.2412,8.1406,7.1763,0,4.5527-3.544,8.229-10.1094,8.229-9.0937,0-9.1602-6.232-9.1924-8.6826Z" fill="#fff"/>
</svg>